# xmcd
#
# Track frame offsets: 
#        150
#        15438
#        26562
#        40694
#
# Disc length: 782 seconds
#
# Revision: 0
# Processed by: cddbd v1.5.2PL0 Copyright (c) Steve Scherf et al.
# Submitted via: ExactAudioCopy v0.99pb5
#
DISCID=20030c04
DTITLE=The Broadsides - Many Fouls And Mishaps
DYEAR=2011
DGENRE=Country
TTITLE0=The Love and The Loss
TTITLE1=Get Down!
TTITLE2=Oh My Lover
TTITLE3=Billy Bible and The Beast Boy
EXTD=
EXTT0=
EXTT1=
EXTT2=
EXTT3=
PLAYORDER=
